<svg xmlns="http://www.w3.org/2000/svg" viewBox="0 0 500 500">
<g id="Page-1" stroke="none" strokeWidth="1" fill="none" fillRule="evenodd">
    <g id="Group">
    <circle id="Oval" fill="#2A69C1" cx="250" cy="250" r="250" />
    <path
        d="M393.428863,230.344313 C388.350664,223.933006 378.475936,224.27055 373.777378,230.962466 C365.500813,242.758214 350.656064,260.225111 335.811314,259.367016 C313.494184,258.077842 305.311508,238.067162 247.285744,238.067162 C247.285744,238.067162 299.359729,228.597623 299.359729,165.275545 C299.359729,105.853527 245.563075,97.2542825 235.147462,97.2542825 C228.213925,97.2542825 217.304371,88.8075431 215.002037,77.5465796 C214.697916,76.0560981 212.605813,75.7998898 211.926134,77.1622672 C209.899345,81.2188981 209.256406,86.8819143 212.211885,90.7819736 C212.211885,90.7819736 208.035843,87.975883 204.261892,88.3601954 C202.792317,88.5086335 202.288171,90.4098615 203.439338,91.3309913 L203.496488,91.3757261 C207.250028,94.4115907 205.860055,100.436552 201.228852,101.825363 C197.436532,102.964067 194.013647,104.265442 191.172469,105.682721 C181.495725,110.501877 169.935067,123.131318 162.556576,138.78849 C161.391121,141.261103 159.07654,142.997626 156.374155,143.461241 C150.0509,144.547076 138.255519,145.565809 127.513333,140.980494 C111.890934,134.308912 105.194162,137.273608 110.402989,153.579434 C115.609775,169.883227 132.72012,180.99982 138.671899,184.706706 C138.671899,184.706706 114.12183,189.893907 114.12183,196.565489 C114.12183,203.235038 131.232175,206.199733 140.159843,205.457543 C149.087512,204.717385 163.964919,201.75269 169.173746,214.35163 C174.380532,226.95057 171.404643,243.996554 146.854574,269.936624 C122.304506,295.874662 116.354768,320.332385 116.354768,331.448977 C116.354768,342.565569 121.871798,428.537678 247.285744,428.537678 C372.26494,428.537678 407.228581,341.085255 407.228581,284.017912 C407.228581,254.901672 400.258305,238.967958 393.428863,230.344313"
        id="Fill-12"
        fill="#F5A623"
    />
    <path
        d="M376.855674,226.587798 C372.081028,220.55321 362.796566,220.870921 358.378866,227.169629 C350.597036,238.272275 336.639638,254.712841 322.68224,253.905167 C301.699126,252.691742 294.005573,233.856863 239.448324,233.856863 C239.448324,233.856863 288.409564,224.943741 288.409564,165.342382 C288.409564,109.411919 237.828629,101.317955 228.035613,101.317955 C221.516532,101.317955 211.259101,93.3675342 209.09439,82.7682494 C208.808448,81.3653466 206.841401,81.1241928 206.202351,82.4065187 C204.296714,86.2247876 203.692207,91.5550527 206.471021,95.2259498 C206.471021,95.2259498 202.544603,92.5847412 198.996242,92.946472 C197.614511,93.0861881 197.140501,94.8757026 198.222857,95.742708 L198.276591,95.7848142 C201.805761,98.6422957 200.498874,104.313238 196.144504,105.620445 C192.578871,106.69224 189.36059,107.917148 186.689244,109.25115 C177.590932,113.787139 166.721318,125.674491 159.783879,140.411669 C158.68809,142.738995 156.511864,144.373482 153.971015,144.809856 C148.025736,145.831889 136.935429,146.790762 126.835362,142.474874 C112.146798,136.195305 105.850328,138.9858 110.747796,154.333518 C115.643344,169.679323 131.73091,180.142719 137.326919,183.631794 C137.326919,183.631794 114.244342,188.514202 114.244342,194.793771 C114.244342,201.071426 130.331908,203.86192 138.725921,203.16334 C147.119935,202.466673 161.108038,199.676179 166.005505,211.534823 C170.901053,223.393466 168.103049,239.437852 145.020472,263.853719 C121.937895,288.267673 116.343805,311.288294 116.343805,321.751691 C116.343805,332.215087 121.531052,413.135593 239.448324,413.135593 C356.956835,413.135593 389.830508,330.821754 389.830508,277.10761 C389.830508,249.7022 383.276884,234.704729 376.855674,226.587798"
        id="Fill-12"
        fill="#F8E71C"
    />
    </g>
</g>
</svg>